<?xml version="1.0" encoding="UTF-8" standalone="no"?>
<!DOCTYPE svg PUBLIC "-//W3C//DTD SVG 1.1//EN"
 "http://www.w3.org/Graphics/SVG/1.1/DTD/svg11.dtd">
<!-- Generated by graphviz version 2.26.3 (20100126.1600)
 -->
<!-- Title: controllers_diagram Pages: 1 -->
<svg width="590pt" height="679pt"
 viewBox="0.00 0.00 590.00 679.00" xmlns="http://www.w3.org/2000/svg" xmlns:xlink="http://www.w3.org/1999/xlink">
<g id="graph1" class="graph" transform="scale(1 1) rotate(0) translate(4 675)">
<title>controllers_diagram</title>
<polygon fill="white" stroke="white" points="-4,5 -4,-675 587,-675 587,5 -4,5"/>
<!-- _diagram_info -->
<g id="node1" class="node"><title>_diagram_info</title>
<text text-anchor="start" x="339" y="-496.3" font-family="Times Roman,serif" font-size="13.00">Controllers diagram</text>
<text text-anchor="start" x="339" y="-479.3" font-family="Times Roman,serif" font-size="13.00">Date: Dec 15 2011 &#45; 11:24</text>
<text text-anchor="start" x="339" y="-462.3" font-family="Times Roman,serif" font-size="13.00">Migration version: 20111215104654</text>
<text text-anchor="start" x="339" y="-445.3" font-family="Times Roman,serif" font-size="13.00">Generated by RailRoady 1.0.2</text>
<text text-anchor="start" x="339" y="-428.3" font-family="Times Roman,serif" font-size="13.00">http://railroady.prestonlee.com</text>
</g>
<!-- OwnersController -->
<g id="node2" class="node"><title>OwnersController</title>
<polyline fill="none" stroke="black" points="299,-155.5 415,-155.5 "/>
<path fill="none" stroke="black" d="M415,-155.5C421,-155.5 427,-161.5 427,-167.5"/>
<polyline fill="none" stroke="black" points="427,-167.5 427,-371.5 "/>
<path fill="none" stroke="black" d="M427,-371.5C427,-377.5 421,-383.5 415,-383.5"/>
<polyline fill="none" stroke="black" points="415,-383.5 299,-383.5 "/>
<path fill="none" stroke="black" d="M299,-383.5C293,-383.5 287,-377.5 287,-371.5"/>
<polyline fill="none" stroke="black" points="287,-371.5 287,-167.5 "/>
<path fill="none" stroke="black" d="M287,-167.5C287,-161.5 293,-155.5 299,-155.5"/>
<text text-anchor="middle" x="357" y="-366.9" font-family="Times Roman,serif" font-size="14.00">OwnersController</text>
<polyline fill="none" stroke="black" points="287,-357.5 427,-357.5 "/>
<text text-anchor="start" x="295" y="-340.9" font-family="Times Roman,serif" font-size="14.00">create</text>
<text text-anchor="start" x="295" y="-322.9" font-family="Times Roman,serif" font-size="14.00">destroy</text>
<text text-anchor="start" x="295" y="-304.9" font-family="Times Roman,serif" font-size="14.00">edit</text>
<text text-anchor="start" x="295" y="-286.9" font-family="Times Roman,serif" font-size="14.00">index</text>
<text text-anchor="start" x="295" y="-268.9" font-family="Times Roman,serif" font-size="14.00">new</text>
<text text-anchor="start" x="295" y="-250.9" font-family="Times Roman,serif" font-size="14.00">show</text>
<text text-anchor="start" x="295" y="-232.9" font-family="Times Roman,serif" font-size="14.00">update</text>
<text text-anchor="start" x="295" y="-214.9" font-family="Times Roman,serif" font-size="14.00">voting</text>
<polyline fill="none" stroke="black" points="287,-205.5 427,-205.5 "/>
<polyline fill="none" stroke="black" points="287,-181.5 427,-181.5 "/>
<text text-anchor="start" x="295" y="-164.9" font-family="Times Roman,serif" font-size="14.00">_layout</text>
</g>
<!-- DevelopmentsController -->
<g id="node3" class="node"><title>DevelopmentsController</title>
<polyline fill="none" stroke="black" points="79,-111.5 240,-111.5 "/>
<path fill="none" stroke="black" d="M240,-111.5C246,-111.5 252,-117.5 252,-123.5"/>
<polyline fill="none" stroke="black" points="252,-123.5 252,-381.5 "/>
<path fill="none" stroke="black" d="M252,-381.5C252,-387.5 246,-393.5 240,-393.5"/>
<polyline fill="none" stroke="black" points="240,-393.5 79,-393.5 "/>
<path fill="none" stroke="black" d="M79,-393.5C73,-393.5 67,-387.5 67,-381.5"/>
<polyline fill="none" stroke="black" points="67,-381.5 67,-123.5 "/>
<path fill="none" stroke="black" d="M67,-123.5C67,-117.5 73,-111.5 79,-111.5"/>
<text text-anchor="middle" x="159.5" y="-376.9" font-family="Times Roman,serif" font-size="14.00">DevelopmentsController</text>
<polyline fill="none" stroke="black" points="67,-367.5 252,-367.5 "/>
<text text-anchor="start" x="75" y="-350.9" font-family="Times Roman,serif" font-size="14.00">about</text>
<text text-anchor="start" x="75" y="-332.9" font-family="Times Roman,serif" font-size="14.00">contact</text>
<text text-anchor="start" x="75" y="-314.9" font-family="Times Roman,serif" font-size="14.00">create</text>
<text text-anchor="start" x="75" y="-296.9" font-family="Times Roman,serif" font-size="14.00">destroy</text>
<text text-anchor="start" x="75" y="-278.9" font-family="Times Roman,serif" font-size="14.00">edit</text>
<text text-anchor="start" x="75" y="-260.9" font-family="Times Roman,serif" font-size="14.00">index</text>
<text text-anchor="start" x="75" y="-242.9" font-family="Times Roman,serif" font-size="14.00">new</text>
<text text-anchor="start" x="75" y="-224.9" font-family="Times Roman,serif" font-size="14.00">show</text>
<text text-anchor="start" x="75" y="-206.9" font-family="Times Roman,serif" font-size="14.00">showowners</text>
<text text-anchor="start" x="75" y="-188.9" font-family="Times Roman,serif" font-size="14.00">showunit</text>
<text text-anchor="start" x="75" y="-170.9" font-family="Times Roman,serif" font-size="14.00">update</text>
<polyline fill="none" stroke="black" points="67,-161.5 252,-161.5 "/>
<polyline fill="none" stroke="black" points="67,-137.5 252,-137.5 "/>
<text text-anchor="start" x="75" y="-120.9" font-family="Times Roman,serif" font-size="14.00">_layout</text>
</g>
<!-- PrimesController -->
<g id="node4" class="node"><title>PrimesController</title>
<polyline fill="none" stroke="black" points="167,-441.5 275,-441.5 "/>
<path fill="none" stroke="black" d="M275,-441.5C281,-441.5 287,-447.5 287,-453.5"/>
<polyline fill="none" stroke="black" points="287,-453.5 287,-657.5 "/>
<path fill="none" stroke="black" d="M287,-657.5C287,-663.5 281,-669.5 275,-669.5"/>
<polyline fill="none" stroke="black" points="275,-669.5 167,-669.5 "/>
<path fill="none" stroke="black" d="M167,-669.5C161,-669.5 155,-663.5 155,-657.5"/>
<polyline fill="none" stroke="black" points="155,-657.5 155,-453.5 "/>
<path fill="none" stroke="black" d="M155,-453.5C155,-447.5 161,-441.5 167,-441.5"/>
<text text-anchor="middle" x="221" y="-652.9" font-family="Times Roman,serif" font-size="14.00">PrimesController</text>
<polyline fill="none" stroke="black" points="155,-643.5 287,-643.5 "/>
<text text-anchor="start" x="163" y="-626.9" font-family="Times Roman,serif" font-size="14.00">create</text>
<text text-anchor="start" x="163" y="-608.9" font-family="Times Roman,serif" font-size="14.00">destroy</text>
<text text-anchor="start" x="163" y="-590.9" font-family="Times Roman,serif" font-size="14.00">edit</text>
<text text-anchor="start" x="163" y="-572.9" font-family="Times Roman,serif" font-size="14.00">index</text>
<text text-anchor="start" x="163" y="-554.9" font-family="Times Roman,serif" font-size="14.00">isprime</text>
<text text-anchor="start" x="163" y="-536.9" font-family="Times Roman,serif" font-size="14.00">new</text>
<text text-anchor="start" x="163" y="-518.9" font-family="Times Roman,serif" font-size="14.00">show</text>
<text text-anchor="start" x="163" y="-500.9" font-family="Times Roman,serif" font-size="14.00">update</text>
<polyline fill="none" stroke="black" points="155,-491.5 287,-491.5 "/>
<polyline fill="none" stroke="black" points="155,-467.5 287,-467.5 "/>
<text text-anchor="start" x="163" y="-450.9" font-family="Times Roman,serif" font-size="14.00">_layout</text>
</g>
<!-- UnitsController -->
<g id="node5" class="node"><title>UnitsController</title>
<polyline fill="none" stroke="black" points="13,-441.5 111,-441.5 "/>
<path fill="none" stroke="black" d="M111,-441.5C117,-441.5 123,-447.5 123,-453.5"/>
<polyline fill="none" stroke="black" points="123,-453.5 123,-657.5 "/>
<path fill="none" stroke="black" d="M123,-657.5C123,-663.5 117,-669.5 111,-669.5"/>
<polyline fill="none" stroke="black" points="111,-669.5 13,-669.5 "/>
<path fill="none" stroke="black" d="M13,-669.5C7,-669.5 1,-663.5 1,-657.5"/>
<polyline fill="none" stroke="black" points="1,-657.5 1,-453.5 "/>
<path fill="none" stroke="black" d="M1,-453.5C1,-447.5 7,-441.5 13,-441.5"/>
<text text-anchor="middle" x="62" y="-652.9" font-family="Times Roman,serif" font-size="14.00">UnitsController</text>
<polyline fill="none" stroke="black" points="1,-643.5 123,-643.5 "/>
<text text-anchor="start" x="9" y="-626.9" font-family="Times Roman,serif" font-size="14.00">create</text>
<text text-anchor="start" x="9" y="-608.9" font-family="Times Roman,serif" font-size="14.00">destroy</text>
<text text-anchor="start" x="9" y="-590.9" font-family="Times Roman,serif" font-size="14.00">edit</text>
<text text-anchor="start" x="9" y="-572.9" font-family="Times Roman,serif" font-size="14.00">index</text>
<text text-anchor="start" x="9" y="-554.9" font-family="Times Roman,serif" font-size="14.00">map</text>
<text text-anchor="start" x="9" y="-536.9" font-family="Times Roman,serif" font-size="14.00">new</text>
<text text-anchor="start" x="9" y="-518.9" font-family="Times Roman,serif" font-size="14.00">show</text>
<text text-anchor="start" x="9" y="-500.9" font-family="Times Roman,serif" font-size="14.00">update</text>
<polyline fill="none" stroke="black" points="1,-491.5 123,-491.5 "/>
<polyline fill="none" stroke="black" points="1,-467.5 123,-467.5 "/>
<text text-anchor="start" x="9" y="-450.9" font-family="Times Roman,serif" font-size="14.00">_layout</text>
</g>
<!-- ApplicationController -->
<g id="node6" class="node"><title>ApplicationController</title>
<polyline fill="none" stroke="black" points="299,-1.5 513,-1.5 "/>
<path fill="none" stroke="black" d="M513,-1.5C519,-1.5 525,-7.5 525,-13.5"/>
<polyline fill="none" stroke="black" points="525,-13.5 525,-109.5 "/>
<path fill="none" stroke="black" d="M525,-109.5C525,-115.5 519,-121.5 513,-121.5"/>
<polyline fill="none" stroke="black" points="513,-121.5 299,-121.5 "/>
<path fill="none" stroke="black" d="M299,-121.5C293,-121.5 287,-115.5 287,-109.5"/>
<polyline fill="none" stroke="black" points="287,-109.5 287,-13.5 "/>
<path fill="none" stroke="black" d="M287,-13.5C287,-7.5 293,-1.5 299,-1.5"/>
<text text-anchor="middle" x="406" y="-104.9" font-family="Times Roman,serif" font-size="14.00">ApplicationController</text>
<polyline fill="none" stroke="black" points="287,-95.5 525,-95.5 "/>
<text text-anchor="start" x="295" y="-78.9" font-family="Times Roman,serif" font-size="14.00">_one_time_conditions_valid_74?</text>
<polyline fill="none" stroke="black" points="287,-69.5 525,-69.5 "/>
<polyline fill="none" stroke="black" points="287,-45.5 525,-45.5 "/>
<text text-anchor="start" x="295" y="-28.9" font-family="Times Roman,serif" font-size="14.00">_layout</text>
<text text-anchor="start" x="295" y="-10.9" font-family="Times Roman,serif" font-size="14.00">_run_process_action_callbacks</text>
</g>
</g>
</svg>
