<?xml version="1.0" encoding="UTF-8" standalone="no"?>
<!DOCTYPE svg PUBLIC "-//W3C//DTD SVG 1.1//EN"
 "http://www.w3.org/Graphics/SVG/1.1/DTD/svg11.dtd">
<!-- Generated by graphviz version 2.26.3 (20100126.1600)
 -->
<!-- Title: models_diagram Pages: 1 -->
<svg width="634pt" height="494pt"
 viewBox="0.00 0.00 634.00 494.00" xmlns="http://www.w3.org/2000/svg" xmlns:xlink="http://www.w3.org/1999/xlink">
<g id="graph1" class="graph" transform="scale(1 1) rotate(0) translate(4 490)">
<title>models_diagram</title>
<polygon fill="white" stroke="white" points="-4,5 -4,-490 631,-490 631,5 -4,5"/>
<!-- _diagram_info -->
<g id="node1" class="node"><title>_diagram_info</title>
<text text-anchor="start" x="8" y="-444.8" font-family="Times Roman,serif" font-size="13.00">Models diagram</text>
<text text-anchor="start" x="8" y="-427.8" font-family="Times Roman,serif" font-size="13.00">Date: Dec 15 2011 &#45; 11:24</text>
<text text-anchor="start" x="8" y="-410.8" font-family="Times Roman,serif" font-size="13.00">Migration version: 20111215104654</text>
<text text-anchor="start" x="8" y="-393.8" font-family="Times Roman,serif" font-size="13.00">Generated by RailRoady 1.0.2</text>
<text text-anchor="start" x="8" y="-376.8" font-family="Times Roman,serif" font-size="13.00">http://railroady.prestonlee.com</text>
</g>
<!-- Development -->
<g id="node2" class="node"><title>Development</title>
<polyline fill="none" stroke="black" points="230.5,-217 371.5,-217 "/>
<path fill="none" stroke="black" d="M371.5,-217C377.5,-217 383.5,-223 383.5,-229"/>
<polyline fill="none" stroke="black" points="383.5,-229 383.5,-293 "/>
<path fill="none" stroke="black" d="M383.5,-293C383.5,-299 377.5,-305 371.5,-305"/>
<polyline fill="none" stroke="black" points="371.5,-305 230.5,-305 "/>
<path fill="none" stroke="black" d="M230.5,-305C224.5,-305 218.5,-299 218.5,-293"/>
<polyline fill="none" stroke="black" points="218.5,-293 218.5,-229 "/>
<path fill="none" stroke="black" d="M218.5,-229C218.5,-223 224.5,-217 230.5,-217"/>
<text text-anchor="middle" x="301" y="-288.4" font-family="Times Roman,serif" font-size="14.00">Development</text>
<polyline fill="none" stroke="black" points="218.5,-279 383.5,-279 "/>
<text text-anchor="start" x="226.5" y="-262.4" font-family="Times Roman,serif" font-size="14.00">name :string</text>
<text text-anchor="start" x="226.5" y="-244.4" font-family="Times Roman,serif" font-size="14.00">created_at :datetime</text>
<text text-anchor="start" x="226.5" y="-226.4" font-family="Times Roman,serif" font-size="14.00">updated_at :datetime</text>
</g>
<!-- Unit -->
<g id="node4" class="node"><title>Unit</title>
<polyline fill="none" stroke="black" points="271,-1 441,-1 "/>
<path fill="none" stroke="black" d="M441,-1C447,-1 453,-7 453,-13"/>
<polyline fill="none" stroke="black" points="453,-13 453,-167 "/>
<path fill="none" stroke="black" d="M453,-167C453,-173 447,-179 441,-179"/>
<polyline fill="none" stroke="black" points="441,-179 271,-179 "/>
<path fill="none" stroke="black" d="M271,-179C265,-179 259,-173 259,-167"/>
<polyline fill="none" stroke="black" points="259,-167 259,-13 "/>
<path fill="none" stroke="black" d="M259,-13C259,-7 265,-1 271,-1"/>
<text text-anchor="middle" x="356" y="-162.4" font-family="Times Roman,serif" font-size="14.00">Unit</text>
<polyline fill="none" stroke="black" points="259,-153 453,-153 "/>
<text text-anchor="start" x="267" y="-136.4" font-family="Times Roman,serif" font-size="14.00">address1 :string</text>
<text text-anchor="start" x="267" y="-118.4" font-family="Times Roman,serif" font-size="14.00">created_at :datetime</text>
<text text-anchor="start" x="267" y="-100.4" font-family="Times Roman,serif" font-size="14.00">updated_at :datetime</text>
<text text-anchor="start" x="267" y="-82.4" font-family="Times Roman,serif" font-size="14.00">latitude :float</text>
<text text-anchor="start" x="267" y="-64.4" font-family="Times Roman,serif" font-size="14.00">longitude :float</text>
<text text-anchor="start" x="267" y="-46.4" font-family="Times Roman,serif" font-size="14.00">gmaps :boolean</text>
<text text-anchor="start" x="267" y="-28.4" font-family="Times Roman,serif" font-size="14.00">management_fee :integer</text>
<text text-anchor="start" x="267" y="-10.4" font-family="Times Roman,serif" font-size="14.00">status :string</text>
</g>
<!-- Development&#45;&gt;Unit -->
<g id="edge2" class="edge"><title>Development&#45;&gt;Unit</title>
<path fill="none" stroke="black" d="M317.687,-209.118C319.797,-202.558 322.008,-195.685 324.258,-188.69"/>
<ellipse fill="none" stroke="black" cx="316.389" cy="-213.155" rx="4.00001" ry="4.00001"/>
<polygon fill="black" stroke="black" points="324.281,-188.616 331.627,-180.474 325.812,-183.856 327.343,-179.096 327.343,-179.096 327.343,-179.096 325.812,-183.856 323.06,-177.718 324.281,-188.616 324.281,-188.616"/>
</g>
<!-- Prime -->
<g id="node3" class="node"><title>Prime</title>
<polyline fill="none" stroke="black" points="473.5,-370 614.5,-370 "/>
<path fill="none" stroke="black" d="M614.5,-370C620.5,-370 626.5,-376 626.5,-382"/>
<polyline fill="none" stroke="black" points="626.5,-382 626.5,-446 "/>
<path fill="none" stroke="black" d="M626.5,-446C626.5,-452 620.5,-458 614.5,-458"/>
<polyline fill="none" stroke="black" points="614.5,-458 473.5,-458 "/>
<path fill="none" stroke="black" d="M473.5,-458C467.5,-458 461.5,-452 461.5,-446"/>
<polyline fill="none" stroke="black" points="461.5,-446 461.5,-382 "/>
<path fill="none" stroke="black" d="M461.5,-382C461.5,-376 467.5,-370 473.5,-370"/>
<text text-anchor="middle" x="544" y="-441.4" font-family="Times Roman,serif" font-size="14.00">Prime</text>
<polyline fill="none" stroke="black" points="461.5,-432 626.5,-432 "/>
<text text-anchor="start" x="469.5" y="-415.4" font-family="Times Roman,serif" font-size="14.00">primenum :integer</text>
<text text-anchor="start" x="469.5" y="-397.4" font-family="Times Roman,serif" font-size="14.00">created_at :datetime</text>
<text text-anchor="start" x="469.5" y="-379.4" font-family="Times Roman,serif" font-size="14.00">updated_at :datetime</text>
</g>
<!-- Owner -->
<g id="node5" class="node"><title>Owner</title>
<polyline fill="none" stroke="black" points="279.5,-343 432.5,-343 "/>
<path fill="none" stroke="black" d="M432.5,-343C438.5,-343 444.5,-349 444.5,-355"/>
<polyline fill="none" stroke="black" points="444.5,-355 444.5,-473 "/>
<path fill="none" stroke="black" d="M444.5,-473C444.5,-479 438.5,-485 432.5,-485"/>
<polyline fill="none" stroke="black" points="432.5,-485 279.5,-485 "/>
<path fill="none" stroke="black" d="M279.5,-485C273.5,-485 267.5,-479 267.5,-473"/>
<polyline fill="none" stroke="black" points="267.5,-473 267.5,-355 "/>
<path fill="none" stroke="black" d="M267.5,-355C267.5,-349 273.5,-343 279.5,-343"/>
<text text-anchor="middle" x="356" y="-468.4" font-family="Times Roman,serif" font-size="14.00">Owner</text>
<polyline fill="none" stroke="black" points="267.5,-459 444.5,-459 "/>
<text text-anchor="start" x="275.5" y="-442.4" font-family="Times Roman,serif" font-size="14.00">firstname :string</text>
<text text-anchor="start" x="275.5" y="-424.4" font-family="Times Roman,serif" font-size="14.00">lastname :string</text>
<text text-anchor="start" x="275.5" y="-406.4" font-family="Times Roman,serif" font-size="14.00">contact_number :string</text>
<text text-anchor="start" x="275.5" y="-388.4" font-family="Times Roman,serif" font-size="14.00">email :string</text>
<text text-anchor="start" x="275.5" y="-370.4" font-family="Times Roman,serif" font-size="14.00">created_at :datetime</text>
<text text-anchor="start" x="275.5" y="-352.4" font-family="Times Roman,serif" font-size="14.00">updated_at :datetime</text>
</g>
<!-- Owner&#45;&gt;Development -->
<g id="edge4" class="edge"><title>Owner&#45;&gt;Development</title>
<path fill="none" stroke="black" d="M327.624,-335.063C325.157,-328.199 322.698,-321.361 320.329,-314.771"/>
<ellipse fill="none" stroke="black" cx="329.079" cy="-339.111" rx="4.00001" ry="4.00001"/>
<polygon fill="black" stroke="black" points="320.314,-314.729 321.166,-303.796 318.623,-310.023 316.931,-305.318 316.931,-305.318 316.931,-305.318 318.623,-310.023 312.697,-306.84 320.314,-314.729 320.314,-314.729"/>
</g>
<!-- Owner&#45;&gt;Unit -->
<g id="edge6" class="edge"><title>Owner&#45;&gt;Unit</title>
<path fill="none" stroke="black" d="M385.518,-335.06C388.18,-325.385 390.451,-315.544 392,-306 398.407,-266.517 397.548,-255.613 392,-216 390.76,-207.148 389.053,-198.045 387.051,-188.977"/>
<ellipse fill="none" stroke="black" cx="384.409" cy="-338.929" rx="4.00001" ry="4.00001"/>
<polygon fill="black" stroke="black" points="387.035,-188.905 389.155,-178.146 385.903,-184.035 384.771,-179.165 384.771,-179.165 384.771,-179.165 385.903,-184.035 380.388,-180.183 387.035,-188.905 387.035,-188.905"/>
</g>
</g>
</svg>
