<?xml version="1.0" encoding="UTF-8" standalone="no"?>
<!DOCTYPE svg PUBLIC "-//W3C//DTD SVG 1.1//EN"
 "http://www.w3.org/Graphics/SVG/1.1/DTD/svg11.dtd">
<!-- Generated by graphviz version 2.26.3 (20100126.1600)
 -->
<!-- Title: models_diagram Pages: 1 -->
<svg width="462pt" height="250pt"
 viewBox="0.00 0.00 462.00 250.00" xmlns="http://www.w3.org/2000/svg" xmlns:xlink="http://www.w3.org/1999/xlink">
<g id="graph1" class="graph" transform="scale(1 1) rotate(0) translate(4 246)">
<title>models_diagram</title>
<polygon fill="white" stroke="white" points="-4,5 -4,-246 459,-246 459,5 -4,5"/>
<!-- _diagram_info -->
<g id="node1" class="node"><title>_diagram_info</title>
<text text-anchor="start" x="8" y="-225.8" font-family="Times Roman,serif" font-size="13.00">Models diagram</text>
<text text-anchor="start" x="8" y="-208.8" font-family="Times Roman,serif" font-size="13.00">Date: Dec 15 2011 &#45; 11:24</text>
<text text-anchor="start" x="8" y="-191.8" font-family="Times Roman,serif" font-size="13.00">Migration version: 20111215104654</text>
<text text-anchor="start" x="8" y="-174.8" font-family="Times Roman,serif" font-size="13.00">Generated by RailRoady 1.0.2</text>
<text text-anchor="start" x="8" y="-157.8" font-family="Times Roman,serif" font-size="13.00">http://railroady.prestonlee.com</text>
</g>
<!-- Development -->
<g id="node2" class="node"><title>Development</title>
<ellipse fill="none" stroke="black" cx="260" cy="-93" rx="77.0746" ry="18.3848"/>
<text text-anchor="middle" x="260" y="-89.4" font-family="Times Roman,serif" font-size="14.00">Development</text>
</g>
<!-- Unit -->
<g id="node4" class="node"><title>Unit</title>
<ellipse fill="none" stroke="black" cx="312" cy="-19" rx="32.0265" ry="18.3848"/>
<text text-anchor="middle" x="312" y="-15.4" font-family="Times Roman,serif" font-size="14.00">Unit</text>
</g>
<!-- Development&#45;&gt;Unit -->
<g id="edge2" class="edge"><title>Development&#45;&gt;Unit</title>
<path fill="none" stroke="black" d="M277.499,-68.0972C282.771,-60.5952 288.567,-52.3476 293.878,-44.7893"/>
<ellipse fill="none" stroke="black" cx="275.154" cy="-71.4351" rx="4.00002" ry="4.00002"/>
<polygon fill="black" stroke="black" points="294.08,-44.501 303.512,-38.9063 296.955,-40.41 299.83,-36.3191 299.83,-36.3191 299.83,-36.3191 296.955,-40.41 296.148,-33.7318 294.08,-44.501 294.08,-44.501"/>
</g>
<!-- Prime -->
<g id="node3" class="node"><title>Prime</title>
<ellipse fill="none" stroke="black" cx="415" cy="-195" rx="39.0967" ry="18.3848"/>
<text text-anchor="middle" x="415" y="-191.4" font-family="Times Roman,serif" font-size="14.00">Prime</text>
</g>
<!-- Owner -->
<g id="node5" class="node"><title>Owner</title>
<ellipse fill="none" stroke="black" cx="313" cy="-195" rx="44.7575" ry="18.3848"/>
<text text-anchor="middle" x="313" y="-191.4" font-family="Times Roman,serif" font-size="14.00">Owner</text>
</g>
<!-- Owner&#45;&gt;Development -->
<g id="edge4" class="edge"><title>Owner&#45;&gt;Development</title>
<path fill="none" stroke="black" d="M299.708,-169.419C291.943,-154.475 282.146,-135.62 274.226,-120.378"/>
<ellipse fill="none" stroke="black" cx="301.68" cy="-173.215" rx="4.00002" ry="4.00002"/>
<polygon fill="black" stroke="black" points="274.183,-120.295 273.565,-109.347 271.877,-115.858 269.572,-111.422 269.572,-111.422 269.572,-111.422 271.877,-115.858 265.579,-113.496 274.183,-120.295 274.183,-120.295"/>
</g>
<!-- Owner&#45;&gt;Unit -->
<g id="edge6" class="edge"><title>Owner&#45;&gt;Unit</title>
<path fill="none" stroke="black" d="M328.015,-169.784C340.687,-145.277 355.384,-107.028 346,-74 343.055,-63.6336 337.537,-53.3076 331.79,-44.4495"/>
<ellipse fill="none" stroke="black" cx="326.069" cy="-173.403" rx="4.00002" ry="4.00002"/>
<polygon fill="black" stroke="black" points="331.732,-44.3653 329.759,-33.5785 328.893,-40.2494 326.055,-36.1336 326.055,-36.1336 326.055,-36.1336 328.893,-40.2494 322.35,-38.6886 331.732,-44.3653 331.732,-44.3653"/>
</g>
</g>
</svg>
